<svg width="74.000000" height="22.399902" viewBox="0 0 74 22.3999" fill="none" xmlns="http://www.w3.org/2000/svg" xmlns:xlink="http://www.w3.org/1999/xlink">
	<desc>
			Created with Pixso.
	</desc>
	<g opacity="0.720000">
		<rect y="0.399902" rx="3.000000" width="74.000008" height="22.000004" fill="#FB0007"/>
	</g>
	<path d="M66.2056 7.03613L66.2056 8.1311L60.0094 8.1311L60.0094 10.1562L64.869 10.1562L64.869 15.4041C64.869 16.0486 64.7188 16.3782 64.2391 16.5759C63.7301 16.7554 62.8914 16.77 61.617 16.77C61.5694 16.4258 61.3753 15.9753 61.2252 15.6604C62.2469 15.6897 63.1441 15.6897 63.4005 15.6897C63.6715 15.6604 63.7447 15.5981 63.7447 15.3894L63.7447 11.2512L60.0094 11.2512L60.0094 18.5242L58.8851 18.5242L58.8851 11.2512L55.3768 11.2512L55.3768 16.814L54.2635 16.814L54.2635 10.1562L58.8851 10.1562L58.8851 8.1311L52.8096 8.1311L52.8096 7.03613L59.2 7.03613C58.962 6.4502 58.5555 5.67017 58.2113 5.06958L59.2769 4.73999C59.7237 5.42847 60.2364 6.37329 60.4451 6.95923L60.2511 7.03613L66.2056 7.03613ZM14.2913 4.75464C14.7087 5.34058 15.1885 6.1499 15.4595 6.72119L21.0112 6.72119L21.0112 7.81616L8.02173 7.81616L8.02173 6.72119L14.1558 6.72119C13.8994 6.2085 13.5698 5.59326 13.2402 5.08423L14.2913 4.75464ZM35.0665 11.2036L35.0519 12.2839L30.7306 12.2839L30.7306 17.0264C30.7306 17.6855 30.5804 18.0151 30.13 18.1946C29.6649 18.3887 28.8995 18.4216 27.8338 18.4216C27.7899 18.1067 27.5958 17.594 27.4164 17.2791C28.2843 17.3083 29.079 17.3083 29.3207 17.2937C29.5441 17.2791 29.621 17.2205 29.621 17.0117L29.621 12.2839L26.3214 12.2839C25.4352 12.2839 24.8492 12.3608 24.7137 12.511C24.6405 12.2546 24.4464 11.6687 24.2962 11.3538C24.6405 11.2659 24.9554 10.8447 25.4205 10.1855C25.6769 9.84131 26.2298 8.96973 26.8304 7.8894L23.2159 7.8894L23.2159 6.82373L27.3834 6.82373C27.7313 6.16455 28.0462 5.46143 28.3319 4.76929L29.4855 5.26367C29.2584 5.77637 29.0057 6.3147 28.7347 6.82373L35.6817 6.82373L35.6817 7.8894L28.1634 7.8894C27.5043 9.09058 26.7865 10.2295 26.0797 11.2036L29.621 11.2036L29.621 9.01367L30.7306 9.01367L30.7306 11.2036L35.0665 11.2036ZM44.0498 13.606L41.7243 13.606L41.7243 16.6052C42.6252 16.9641 43.7788 17.085 45.2656 17.085C46.0017 17.0996 50.561 17.0996 51.4912 17.0557C51.2934 17.3267 51.0993 17.8357 51.0261 18.1653L45.2949 18.1653C42.1015 18.1653 40.3291 17.6709 39.2341 15.6311C39.0547 16.77 38.802 17.7588 38.3515 18.5681C38.1684 18.4363 37.7216 18.1506 37.4653 18.0298C38.3186 16.5283 38.4687 14.1882 38.5017 11.5662L39.5197 11.6248C39.5051 12.3608 39.4758 13.0786 39.4319 13.7561C39.7468 14.7449 40.1496 15.4663 40.7209 15.99L40.7209 10.4858L37.8388 10.4858L37.8388 9.49341L40.5085 9.49341L40.5085 7.65137L38.1245 7.65137L38.1245 6.65894L40.5085 6.65894L40.5085 4.86084L41.5449 4.86084L41.5449 6.65894L43.885 6.65894L43.885 7.65137L41.5449 7.65137L41.5449 9.49341L44.1853 9.49341L44.1853 10.1416C45.5219 9.37622 46.2251 8.20435 46.4338 6.43555L44.3501 6.43555L44.3501 5.47607L50.9052 5.47607C50.9052 5.47607 50.9052 5.79102 50.8906 5.94116C50.7551 8.61084 50.6196 9.6582 50.29 10.0354C50.0666 10.2881 49.7956 10.3796 49.4184 10.4089C49.0742 10.4565 48.4443 10.4382 47.7851 10.4089C47.7558 10.1086 47.6496 9.72046 47.4995 9.44946C48.1147 9.51172 48.7007 9.51172 48.924 9.51172C49.1364 9.52637 49.2866 9.49341 49.3745 9.37622C49.5686 9.14917 49.7041 8.38379 49.8103 6.43555L47.5141 6.43555C47.2138 8.66943 46.2837 10.0647 44.6797 11.0095C44.5588 10.874 44.3061 10.6506 44.0791 10.4858L41.7243 10.4858L41.7243 12.6135L44.0498 12.6135L44.0498 13.606ZM19.2864 9.01367L19.2864 13.3789L15.1299 13.3789L15.1299 17.2644C15.1299 17.9236 14.9797 18.2239 14.4707 18.4033C13.9617 18.5864 13.1047 18.5864 11.7864 18.5681C11.7241 18.2532 11.5593 17.821 11.4092 17.5061C12.4309 17.5354 13.3611 17.5354 13.6284 17.5208C13.9141 17.5208 13.9763 17.4438 13.9763 17.2351L13.9763 13.3789L9.86377 13.3789L9.86377 9.01367L19.2864 9.01367ZM18.1292 9.99146L10.9587 9.99146L10.9587 12.3901L18.1292 12.3901L18.1292 9.99146ZM50.561 15.8545L44.8445 15.8545L44.8445 11.2366L50.561 11.2366L50.561 15.8545ZM49.466 12.1631L45.8955 12.1631L45.8955 14.9243L49.466 14.9243L49.466 12.1631ZM35.0519 17.7441C34.4659 16.7261 33.1293 15.0891 31.961 13.9209L32.8766 13.4558C34.0448 14.5801 35.4254 16.1548 36.0553 17.2058L35.0519 17.7441ZM23.1244 17.2058C24.2193 16.2903 25.285 14.895 25.9003 13.4851L26.9952 13.7708C26.2884 15.3455 25.1495 16.9202 24.0692 17.9382C23.8605 17.7295 23.3954 17.3853 23.1244 17.2058ZM19.9895 18.136C19.4365 17.2791 18.25 15.8691 17.2466 14.8804L18.1584 14.3237C19.1216 15.2832 20.3667 16.6345 20.9636 17.4731L19.9895 18.136ZM7.83862 17.3853C8.8457 16.5759 9.99927 15.3308 10.5706 14.3384L11.6362 14.7156C10.8855 15.8838 9.71362 17.2058 8.66626 18.0737C8.45386 17.8796 8.06567 17.55 7.83862 17.3853Z" fill="#FFFFFF"/>
	<defs/>
</svg>
